<svg xmlns="http://www.w3.org/2000/svg" viewBox="0 0 500 500"><g id="freepik--Books--inject-16"><path d="M281.87,411.43a6.91,6.91,0,0,1,0,8.58h61.51l1.82-4.68-2.34-4.16Z" style="fill:#fff"></path><path d="M343.38,420.51H281.87a.48.48,0,0,1-.44-.27.49.49,0,0,1,0-.52,6.35,6.35,0,0,0,0-8,.53.53,0,0,1-.07-.54.5.5,0,0,1,.45-.29l61-.26a.46.46,0,0,1,.43.25l2.34,4.17a.45.45,0,0,1,0,.42l-1.82,4.69A.49.49,0,0,1,343.38,420.51Zm-60.59-1H343l1.61-4.14-2.08-3.7-59.76.26A7.29,7.29,0,0,1,282.79,419.51Z" style="fill:#263238"></path><path d="M343.38,419.8V412H285.63v-2h76.83a5.89,5.89,0,1,1,0,11.77H285.63v-2Z" style="fill:#92E3A9"></path><path d="M362.46,422.26H285.63a.5.5,0,0,1-.5-.5v-2a.5.5,0,0,1,.5-.5h57.25v-6.85H285.63a.5.5,0,0,1-.5-.5v-2a.5.5,0,0,1,.5-.5h76.83a6.39,6.39,0,1,1,0,12.77Zm-76.33-1h76.33a5.39,5.39,0,1,0,0-10.77H286.13v1h57.25a.5.5,0,0,1,.5.5v7.85a.5.5,0,0,1-.5.5H286.13Z" style="fill:#263238"></path><path d="M343.38,415.88h0a3.93,3.93,0,0,0-3.93-3.93H279.53v-2h61a5.64,5.64,0,0,1,5.64,5.65h0a6.12,6.12,0,0,1-6.12,6.12H279.53v-2h59.92A3.92,3.92,0,0,0,343.38,415.88Z" style="fill:#92E3A9"></path><path d="M340.08,422.26H279.53a.5.5,0,0,1-.5-.5v-2a.5.5,0,0,1,.5-.5h59.92a3.43,3.43,0,1,0,0-6.85H279.53a.5.5,0,0,1-.5-.5v-2a.5.5,0,0,1,.5-.5h61a6.16,6.16,0,0,1,6.15,6.15A6.64,6.64,0,0,1,340.08,422.26Zm-60.05-1h60.05a5.63,5.63,0,0,0,5.63-5.62,5.16,5.16,0,0,0-5.15-5.15H280v1h59.42a4.43,4.43,0,1,1,0,8.85H280Z" style="fill:#263238"></path><path d="M281.11,387.25a6.91,6.91,0,0,1,0,8.58h61.5l1.83-4.68L342.09,387Z" style="fill:#fff"></path><path d="M342.62,396.33H281.11a.5.5,0,0,1-.45-.27.51.51,0,0,1,0-.52,6.43,6.43,0,0,0,0-8,.51.51,0,0,1-.08-.54.5.5,0,0,1,.46-.29l61-.26a.59.59,0,0,1,.44.25l2.34,4.17a.48.48,0,0,1,0,.42L343.08,396A.48.48,0,0,1,342.62,396.33Zm-60.59-1h60.24l1.61-4.14-2.08-3.7-59.75.26A7.33,7.33,0,0,1,282,395.33Z" style="fill:#263238"></path><path d="M342.61,395.62v-7.85H284.86v-2H361.7a5.89,5.89,0,1,1,0,11.77H284.86v-2Z" style="fill:#92E3A9"></path><path d="M361.7,398.08H284.86a.5.5,0,0,1-.5-.5v-2a.51.51,0,0,1,.5-.5h57.26v-6.85H284.86a.5.5,0,0,1-.5-.5v-2a.5.5,0,0,1,.5-.5H361.7a6.39,6.39,0,1,1,0,12.77Zm-76.34-1H361.7a5.39,5.39,0,1,0,0-10.77H285.36v1h57.26a.5.5,0,0,1,.5.5v7.85a.5.5,0,0,1-.5.5H285.36Z" style="fill:#263238"></path><path d="M342.61,391.7h0a3.92,3.92,0,0,0-3.92-3.93H278.77v-2h61a5.65,5.65,0,0,1,5.64,5.64h0a6.12,6.12,0,0,1-6.12,6.13H278.77v-2h59.92A3.92,3.92,0,0,0,342.61,391.7Z" style="fill:#92E3A9"></path><path d="M339.32,398.08H278.77a.5.5,0,0,1-.5-.5v-2a.5.5,0,0,1,.5-.5h59.92a3.43,3.43,0,1,0,0-6.85H278.77a.5.5,0,0,1-.5-.5v-2a.5.5,0,0,1,.5-.5h61a6.15,6.15,0,0,1,6.14,6.15A6.63,6.63,0,0,1,339.32,398.08Zm-60.05-1h60.05a5.62,5.62,0,0,0,5.62-5.62,5.15,5.15,0,0,0-5.14-5.15H279.27v1h59.42a4.43,4.43,0,1,1,0,8.85H279.27Z" style="fill:#263238"></path><path d="M286,399.72a6.92,6.92,0,0,1,0,8.59h61.51l1.82-4.69L347,399.46Z" style="fill:#fff"></path><path d="M347.54,408.81H286a.49.49,0,0,1-.44-.27.51.51,0,0,1,0-.53,6.44,6.44,0,0,0,0-8,.47.47,0,0,1-.07-.53.49.49,0,0,1,.45-.3l61-.26h0a.49.49,0,0,1,.43.26l2.34,4.16a.47.47,0,0,1,0,.43L348,408.49A.5.5,0,0,1,347.54,408.81Zm-60.59-1H347.2l1.61-4.15-2.09-3.7-59.75.26A7.3,7.3,0,0,1,287,407.81Z" style="fill:#263238"></path><path d="M347.54,408.1v-7.86H289.79v-2h76.83a5.89,5.89,0,0,1,0,11.78H289.79v-2Z" style="fill:#263238"></path><path d="M366.62,410.56H289.79a.5.5,0,0,1-.5-.5v-2a.5.5,0,0,1,.5-.5H347v-6.86H289.79a.5.5,0,0,1-.5-.5v-2a.5.5,0,0,1,.5-.5h76.83a6.39,6.39,0,0,1,0,12.78Zm-76.33-1h76.33a5.39,5.39,0,0,0,0-10.78H290.29v1h57.25a.51.51,0,0,1,.5.5v7.86a.51.51,0,0,1-.5.5H290.29Z" style="fill:#263238"></path><path d="M347.54,404.17h0a3.93,3.93,0,0,0-3.93-3.93H283.69v-2h61a5.64,5.64,0,0,1,5.64,5.65h0a6.13,6.13,0,0,1-6.12,6.13H283.69v-2h59.92A3.93,3.93,0,0,0,347.54,404.17Z" style="fill:#92E3A9"></path><path d="M344.24,410.56H283.69a.5.5,0,0,1-.5-.5v-2a.5.5,0,0,1,.5-.5h59.92a3.43,3.43,0,1,0,0-6.86H283.69a.5.5,0,0,1-.5-.5v-2a.5.5,0,0,1,.5-.5h61a6.15,6.15,0,0,1,6.14,6.15A6.64,6.64,0,0,1,344.24,410.56Zm-60.05-1h60.05a5.63,5.63,0,0,0,5.62-5.63,5.15,5.15,0,0,0-5.14-5.15H284.19v1h59.42a4.43,4.43,0,1,1,0,8.86H284.19Z" style="fill:#263238"></path></g><g id="freepik--Table--inject-16"><rect x="25.29" y="421.26" width="455.77" height="1" style="fill:#263238"></rect></g><g id="freepik--Plant--inject-16"><path d="M393.14,365s-.22-5.63-2.6-9.54-11.06-6.72-15.61-4.76a62.09,62.09,0,0,0-6.72,3.25A51.15,51.15,0,0,1,381,360,32.24,32.24,0,0,0,393.14,365Z" style="fill:#92E3A9"></path><path d="M393.14,365.46h-.07a32.42,32.42,0,0,1-12.35-5.07,50.75,50.75,0,0,0-12.65-6,.49.49,0,0,1-.35-.42.49.49,0,0,1,.24-.49,60.44,60.44,0,0,1,6.78-3.28c4.68-2,13.63.72,16.23,5,2.42,4,2.66,9.55,2.67,9.78a.49.49,0,0,1-.17.39A.46.46,0,0,1,393.14,365.46Zm-23.68-11.67a51.75,51.75,0,0,1,11.82,5.77,32.65,32.65,0,0,0,11.32,4.79,21.87,21.87,0,0,0-2.49-8.67c-2.34-3.82-10.73-6.39-15-4.56C372.39,352.29,370.51,353.23,369.46,353.79Z" style="fill:#263238"></path><path d="M402.24,367.78s-5.2-5-6.07-11.92,6.51-17.78,6.51-17.78a77.24,77.24,0,0,1,5.85,14.53C410.7,360.41,402.24,367.78,402.24,367.78Z" style="fill:#92E3A9"></path><path d="M402.24,368.28a.51.51,0,0,1-.34-.14c-.22-.21-5.34-5.19-6.22-12.22s6.28-17.67,6.58-18.12a.51.51,0,0,1,.86,0A79.23,79.23,0,0,1,409,352.47c2.23,8-6.08,15.38-6.44,15.69A.5.5,0,0,1,402.24,368.28Zm.39-29.21c-1.58,2.5-6.67,11.06-6,16.73s4.45,10.06,5.59,11.28c1.54-1.48,7.6-7.83,5.79-14.34A77.35,77.35,0,0,0,402.63,339.07Z" style="fill:#263238"></path><path d="M412.21,365.61s-1.3-6.5,1.09-11.05,8.67-4.12,14.95-2.17,8.24,1.95,8.24,1.95a93.52,93.52,0,0,1-13.65,7.59A84.09,84.09,0,0,1,412.21,365.61Z" style="fill:#92E3A9"></path><path d="M412.21,366.11A.48.48,0,0,1,412,366a.55.55,0,0,1-.23-.33c-.05-.27-1.3-6.73,1.13-11.38,2.14-4.08,7.51-4.91,15.55-2.42,6.08,1.89,8.07,1.93,8.09,1.93a.5.5,0,0,1,.48.36.49.49,0,0,1-.2.55A94.2,94.2,0,0,1,423,362.39a87.48,87.48,0,0,1-10.69,3.71Zm8.27-14.61c-2.91,0-5.46.84-6.74,3.29-1.89,3.61-1.36,8.58-1.12,10.2a89.41,89.41,0,0,0,10-3.53,87.83,87.83,0,0,0,12.44-6.79,57.41,57.41,0,0,1-7-1.8A26.89,26.89,0,0,0,420.48,351.5Z" style="fill:#263238"></path><path d="M402.3,389a.56.56,0,0,1-.56-.56v-31a.56.56,0,0,1,1.12,0v31A.56.56,0,0,1,402.3,389Z" style="fill:#263238"></path><path d="M404.9,389h-.07a.55.55,0,0,1-.48-.63c.1-.77,2.72-19.14,11.62-29.33a.56.56,0,1,1,.84.73c-8.67,9.94-11.33,28.57-11.35,28.76A.56.56,0,0,1,404.9,389Z" style="fill:#263238"></path><path d="M399.7,388.54h0a.57.57,0,0,1-.55-.57c0-.18.08-17.82-10.41-26.22a.57.57,0,0,1-.09-.79.56.56,0,0,1,.79-.08c10.93,8.74,10.84,26.36,10.83,27.1A.56.56,0,0,1,399.7,388.54Z" style="fill:#263238"></path><path d="M408.37,388.32l-.14,0a.57.57,0,0,1-.4-.69A35.91,35.91,0,0,1,412.9,377a.56.56,0,1,1,.91.65,35.93,35.93,0,0,0-4.9,10.22A.56.56,0,0,1,408.37,388.32Z" style="fill:#263238"></path><path d="M411.78,379.7s-.22-6.07,2.39-6.94,5,1.31,6.93,2.61,4.12,2.6,4.12,6.5a72.88,72.88,0,0,1-1.52,11.05s-2.16-6.72-5.85-9.75S411.78,379.7,411.78,379.7Z" style="fill:#92E3A9"></path><path d="M423.7,393.42a.5.5,0,0,1-.47-.34c0-.07-2.17-6.62-5.7-9.53s-5.82-3.35-5.84-3.36a.5.5,0,0,1-.41-.47c0-.66-.15-6.47,2.73-7.43,2.45-.81,4.68.77,6.48,2,.31.22.6.43.89.62l.2.13c1.94,1.29,4.14,2.75,4.14,6.79A72.7,72.7,0,0,1,424.19,393a.5.5,0,0,1-.46.39Zm-11.43-14.11a17.78,17.78,0,0,1,5.9,3.47c2.63,2.17,4.48,6.07,5.39,8.31a61.12,61.12,0,0,0,1.16-9.22c0-3.5-1.79-4.69-3.69-5.95l-.21-.14c-.29-.19-.6-.41-.91-.63-1.69-1.2-3.61-2.57-5.59-1.91C412.61,373.81,412.27,377.52,412.27,379.31Z" style="fill:#263238"></path><path d="M395.8,388.54a.57.57,0,0,1-.54-.39,19.72,19.72,0,0,0-5.66-8.4.56.56,0,0,1-.09-.79.55.55,0,0,1,.78-.09,20.54,20.54,0,0,1,6,8.94.55.55,0,0,1-.36.7A.51.51,0,0,1,395.8,388.54Z" style="fill:#263238"></path><path d="M393.14,381.65s.87-3.9-1.3-6.72-7.37-2.17-10,.87-6.29,12.14-6.29,12.14,5.2-4.12,11.27-4.12S393.14,381.65,393.14,381.65Z" style="fill:#92E3A9"></path><path d="M375.58,388.44a.57.57,0,0,1-.3-.1.5.5,0,0,1-.16-.59c.15-.37,3.75-9.21,6.37-12.28a8.51,8.51,0,0,1,6.45-2.83,5.44,5.44,0,0,1,4.3,2c2.22,2.89,1.47,6.75,1.39,7.11s-.66,2.58-6.78,2.58c-5.81,0-10.91,4-11,4A.51.51,0,0,1,375.58,388.44Zm12.16-14.81a7.47,7.47,0,0,0-5.49,2.49c-1.87,2.19-4.37,7.71-5.54,10.43a20,20,0,0,1,10.14-3.23c5.4,0,5.79-1.72,5.79-1.74v0s.79-3.71-1.21-6.3a4.45,4.45,0,0,0-3.53-1.6Z" style="fill:#263238"></path><polygon points="410.41 421.76 393.11 421.76 384.46 393.15 419.06 393.15 410.41 421.76" style="fill:#fff"></polygon><path d="M410.41,422.26h-17.3a.5.5,0,0,1-.48-.35L384,393.3a.55.55,0,0,1,.08-.45.52.52,0,0,1,.4-.2h34.6a.51.51,0,0,1,.4.2.49.49,0,0,1,.08.45l-8.65,28.61A.5.5,0,0,1,410.41,422.26Zm-16.93-1H410l8.35-27.61H385.14Z" style="fill:#263238"></path><rect x="384.37" y="388.41" width="34.79" height="4.74" style="fill:#fff"></rect><path d="M419.16,393.65H384.37a.5.5,0,0,1-.5-.5v-4.74a.5.5,0,0,1,.5-.5h34.79a.5.5,0,0,1,.5.5v4.74A.5.5,0,0,1,419.16,393.65Zm-34.29-1h33.79v-3.74H384.87Z" style="fill:#263238"></path></g><g id="freepik--Blackboard--inject-16"><path d="M446.6,318.54H125.13v-7.11H446.6Zm-320.47-1H445.6v-5.11H126.13Z" style="fill:#263238"></path><path d="M446.6,315.37H125.13V120.51H446.6Zm-320.47-1H445.6V121.51H126.13Z" style="fill:#263238"></path><rect x="132.25" y="127.83" width="307.23" height="180.22" style="fill:gray"></rect><path d="M440,308.55H131.75V127.33H440Zm-307.23-1H439V128.33H132.75Z" style="fill:#263238"></path><path d="M260.72,265.45a2.55,2.55,0,0,1-1.58-.51,3.58,3.58,0,0,1-1.08-1.32,3.73,3.73,0,0,1-.4-1.7,5.4,5.4,0,0,1,.48-2.4,4.77,4.77,0,0,1,1.3-1.65,8.62,8.62,0,0,1,1.92-1.17c.73-.33,1.5-.66,2.31-1v-1.08a9.38,9.38,0,0,0-.1-1.53,1.6,1.6,0,0,0-.44-.91,1.43,1.43,0,0,0-1-.3,1.49,1.49,0,0,0-.93.27,1.44,1.44,0,0,0-.52.75,3.82,3.82,0,0,0-.16,1.14v.77l-2.79-.11A5.57,5.57,0,0,1,258.9,251a4.45,4.45,0,0,1,3.43-1.2,3.81,3.81,0,0,1,3.21,1.24,5.77,5.77,0,0,1,.95,3.59v7c0,.47,0,.93,0,1.37s.06.84.11,1.22.08.74.12,1.07h-2.59c-.05-.28-.12-.64-.2-1.07s-.13-.82-.17-1.17a3.92,3.92,0,0,1-1,1.67A2.74,2.74,0,0,1,260.72,265.45Zm1.11-2.42a1.43,1.43,0,0,0,.79-.24,4.32,4.32,0,0,0,.66-.54,2.89,2.89,0,0,0,.39-.49v-4.32c-.44.24-.85.49-1.24.74a6.86,6.86,0,0,0-1,.77,3.26,3.26,0,0,0-.69.93,2.58,2.58,0,0,0-.25,1.17,2.73,2.73,0,0,0,.34,1.45A1.14,1.14,0,0,0,261.83,263Z" style="fill:#e0e0e0"></path><path d="M268,265.24l3.43-8L268.1,250h2.69l2.24,4.83,2-4.83h2.76l-3.48,7.57,3.54,7.67h-2.69l-2.4-5.17-2.06,5.17Z" style="fill:#e0e0e0"></path><path d="M280.07,253.83v-1.61l3.27-3.56c.52-.56.94-1,1.25-1.44a4.51,4.51,0,0,0,.66-1.07,2.44,2.44,0,0,0,.2-.94,1.88,1.88,0,0,0-.37-1.23,1.43,1.43,0,0,0-1.14-.44,1.53,1.53,0,0,0-1.41.65,3.58,3.58,0,0,0-.41,1.89H280v-.37a5.21,5.21,0,0,1,.4-2.1,3.24,3.24,0,0,1,1.25-1.49,4.08,4.08,0,0,1,2.25-.55,3.73,3.73,0,0,1,2.69.93,3.41,3.41,0,0,1,1,2.57,4.29,4.29,0,0,1-.62,2.31,14.69,14.69,0,0,1-1.94,2.33L282.86,252h4.88v1.85Z" style="fill:#e0e0e0"></path><path d="M315,265.45a2.7,2.7,0,0,1-1.46-.41,5.36,5.36,0,0,1-1.12-.91v1.11H309.6V243.89h2.82v7.33a5,5,0,0,1,1.2-1,3.16,3.16,0,0,1,1.67-.42,2.73,2.73,0,0,1,1.88.62,3.78,3.78,0,0,1,1.05,1.56,8.9,8.9,0,0,1,.45,1.9c.06.64.1,1.19.1,1.64v3.69a13.59,13.59,0,0,1-.32,3.05,4.91,4.91,0,0,1-1.13,2.32A3,3,0,0,1,315,265.45Zm-.58-2.21a1.12,1.12,0,0,0,1.05-.54,3.34,3.34,0,0,0,.4-1.47c.05-.61.08-1.29.08-2v-3.69a13.57,13.57,0,0,0-.11-1.75,2.88,2.88,0,0,0-.44-1.28,1.26,1.26,0,0,0-1.08-.47,2.51,2.51,0,0,0-1.05.23,4.94,4.94,0,0,0-.85.53v9.78a3.1,3.1,0,0,0,.88.49A3.14,3.14,0,0,0,314.42,263.24Z" style="fill:#e0e0e0"></path><path d="M320,265.24l3.42-8L320.11,250h2.69l2.24,4.83,2-4.83h2.77l-3.48,7.57,3.53,7.67h-2.69l-2.4-5.17-2.05,5.17Z" style="fill:#e0e0e0"></path><path d="M355.63,265.45a4.53,4.53,0,0,1-2.83-.75,3.69,3.69,0,0,1-1.29-2.12,13.78,13.78,0,0,1-.33-3.19v-3.51a13.55,13.55,0,0,1,.34-3.28,3.58,3.58,0,0,1,1.31-2.08,4.54,4.54,0,0,1,2.8-.73,5,5,0,0,1,2.57.54,2.8,2.8,0,0,1,1.26,1.61,9.08,9.08,0,0,1,.34,2.65v.9h-2.56v-.93a7.4,7.4,0,0,0-.13-1.58,1.41,1.41,0,0,0-.48-.84,1.51,1.51,0,0,0-1-.27,1.6,1.6,0,0,0-1.06.32,1.76,1.76,0,0,0-.48,1.07,13.57,13.57,0,0,0-.12,2v4.8a6,6,0,0,0,.37,2.61,1.37,1.37,0,0,0,1.32.66,1.43,1.43,0,0,0,1-.33,1.61,1.61,0,0,0,.42-.94,9.35,9.35,0,0,0,.09-1.37v-1.24h2.56v1.06a8.48,8.48,0,0,1-.36,2.63,3.07,3.07,0,0,1-1.26,1.69A4.72,4.72,0,0,1,355.63,265.45Z" style="fill:#e0e0e0"></path><path d="M368.34,253.22v-2.16h8.09v2.16Zm0,4.67v-2.14h8.09v2.14Z" style="fill:#e0e0e0"></path><path d="M390.72,265.48a5.15,5.15,0,0,1-3-.82,4.71,4.71,0,0,1-1.74-2.24,8.67,8.67,0,0,1-.57-3.24V250a8.91,8.91,0,0,1,.55-3.28,4.67,4.67,0,0,1,1.73-2.21,5.35,5.35,0,0,1,3-.79,5.26,5.26,0,0,1,3,.79,4.65,4.65,0,0,1,1.72,2.21A8.91,8.91,0,0,1,396,250v9.2a8.75,8.75,0,0,1-.57,3.27,4.69,4.69,0,0,1-1.72,2.22A5.11,5.11,0,0,1,390.72,265.48Zm0-2.32a1.92,1.92,0,0,0,1.51-.58,3.3,3.3,0,0,0,.72-1.49,9,9,0,0,0,.19-1.89V250A10.06,10.06,0,0,0,393,248a3,3,0,0,0-.7-1.46,2,2,0,0,0-1.54-.55,2,2,0,0,0-1.56.55,2.91,2.91,0,0,0-.71,1.46,10.06,10.06,0,0,0-.18,1.94v9.25a9,9,0,0,0,.19,1.89,3.23,3.23,0,0,0,.74,1.49A2,2,0,0,0,390.72,263.16Z" style="fill:#e0e0e0"></path><path d="M297.2,259.65v-4.3h-3.69v-2.13h3.69v-4.3h2.11v4.3h3.83v2.13h-3.83v4.3Z" style="fill:#e0e0e0"></path><path d="M340.38,259.65v-4.3h-3.69v-2.13h3.69v-4.3h2.11v4.3h3.82v2.13h-3.82v4.3Z" style="fill:#e0e0e0"></path><path d="M189,183.61l3.43-8L189,168.37h2.69L194,173.2l2-4.83h2.76l-3.48,7.57,3.54,7.67h-2.69l-2.4-5.17-2.06,5.17Z" style="fill:#e0e0e0"></path><path d="M206.43,171.59v-2.16h8.09v2.16Zm0,4.67v-2.14h8.09v2.14Z" style="fill:#e0e0e0"></path><path d="M222.19,178.23V176.1h12.63v2.13Z" style="fill:#e0e0e0"></path><path d="M241.88,183.82a2.62,2.62,0,0,1-1.46-.41,5.36,5.36,0,0,1-1.12-.91v1.11h-2.82V162.26h2.82v7.33a5,5,0,0,1,1.2-1,3.16,3.16,0,0,1,1.67-.42,2.78,2.78,0,0,1,1.89.62,3.86,3.86,0,0,1,1,1.56,7.85,7.85,0,0,1,.45,1.9,15.32,15.32,0,0,1,.1,1.64v3.69a14.21,14.21,0,0,1-.31,3.05,4.92,4.92,0,0,1-1.14,2.32A3,3,0,0,1,241.88,183.82Zm-.58-2.21a1.13,1.13,0,0,0,1.06-.54,3.49,3.49,0,0,0,.39-1.47c.05-.61.08-1.29.08-2v-3.69a13.65,13.65,0,0,0-.1-1.75,2.88,2.88,0,0,0-.45-1.28,1.26,1.26,0,0,0-1.08-.47,2.43,2.43,0,0,0-1,.23,4.68,4.68,0,0,0-.86.53v9.78a3.1,3.1,0,0,0,.88.49A3.14,3.14,0,0,0,241.3,181.61Z" style="fill:#e0e0e0"></path><path d="M302.87,183.82a2.62,2.62,0,0,1-1.46-.41,5.63,5.63,0,0,1-1.12-.91v1.11h-2.82V162.26h2.82v7.33a5,5,0,0,1,1.2-1,3.16,3.16,0,0,1,1.67-.42,2.78,2.78,0,0,1,1.89.62,3.86,3.86,0,0,1,1,1.56,7.85,7.85,0,0,1,.45,1.9,15.32,15.32,0,0,1,.1,1.64v3.69a14.21,14.21,0,0,1-.31,3.05,4.83,4.83,0,0,1-1.14,2.32A3,3,0,0,1,302.87,183.82Zm-.58-2.21a1.13,1.13,0,0,0,1.06-.54,3.49,3.49,0,0,0,.39-1.47c.06-.61.08-1.29.08-2v-3.69a13.65,13.65,0,0,0-.1-1.75,2.76,2.76,0,0,0-.45-1.28,1.26,1.26,0,0,0-1.08-.47,2.43,2.43,0,0,0-1,.23,5,5,0,0,0-.86.53v9.78a3.24,3.24,0,0,0,.88.49A3.18,3.18,0,0,0,302.29,181.61Z" style="fill:#e0e0e0"></path><path d="M309.81,172.2v-1.61l3.27-3.56c.52-.56.94-1,1.25-1.44a5.28,5.28,0,0,0,.66-1.07,2.43,2.43,0,0,0,.19-.94,1.83,1.83,0,0,0-.37-1.23,1.39,1.39,0,0,0-1.13-.44,1.53,1.53,0,0,0-1.41.65,3.58,3.58,0,0,0-.41,1.89h-2.08v-.37a5.38,5.38,0,0,1,.39-2.1,3.32,3.32,0,0,1,1.26-1.49,4.08,4.08,0,0,1,2.25-.55,3.74,3.74,0,0,1,2.69.93,3.41,3.41,0,0,1,1,2.57,4.29,4.29,0,0,1-.62,2.31,14.69,14.69,0,0,1-1.94,2.33l-2.19,2.27h4.88v1.85Z" style="fill:#e0e0e0"></path><path d="M350.68,183.61v-5.72h-6.2v-2.95L350,162.26h3.33v13.13h2.39v2.5h-2.39v5.72Zm-3.48-8.22h3.48v-9.71Z" style="fill:#e0e0e0"></path><path d="M360.32,183.82a2.6,2.6,0,0,1-1.58-.51,3.78,3.78,0,0,1-1.08-1.32,3.85,3.85,0,0,1-.39-1.7,5.41,5.41,0,0,1,.47-2.4,4.8,4.8,0,0,1,1.31-1.65,8.62,8.62,0,0,1,1.92-1.17c.73-.33,1.5-.66,2.31-1V173a9.25,9.25,0,0,0-.11-1.53,1.59,1.59,0,0,0-.43-.91,1.43,1.43,0,0,0-1-.3,1.52,1.52,0,0,0-.94.27,1.37,1.37,0,0,0-.51.75,3.52,3.52,0,0,0-.16,1.14v.77l-2.79-.11a5.57,5.57,0,0,1,1.15-3.73,4.47,4.47,0,0,1,3.43-1.2,3.83,3.83,0,0,1,3.22,1.24,5.84,5.84,0,0,1,1,3.59v7c0,.47,0,.93,0,1.37s.06.84.1,1.22.09.74.12,1.07h-2.58c-.06-.28-.12-.64-.2-1.07s-.14-.82-.17-1.17a4,4,0,0,1-1,1.67A2.74,2.74,0,0,1,360.32,183.82Zm1.11-2.42a1.41,1.41,0,0,0,.79-.24,3.53,3.53,0,0,0,.66-.54,3.07,3.07,0,0,0,.4-.49v-4.32c-.44.24-.86.49-1.24.74a6.47,6.47,0,0,0-1,.77,3.05,3.05,0,0,0-.68.93,2.58,2.58,0,0,0-.25,1.17,2.64,2.64,0,0,0,.34,1.45A1.12,1.12,0,0,0,361.43,181.4Z" style="fill:#e0e0e0"></path><path d="M373,183.82a4.58,4.58,0,0,1-2.84-.75,3.69,3.69,0,0,1-1.29-2.12,13.78,13.78,0,0,1-.33-3.19v-3.51a13.5,13.5,0,0,1,.35-3.28,3.57,3.57,0,0,1,1.3-2.08,4.57,4.57,0,0,1,2.81-.73,5.09,5.09,0,0,1,2.57.54,2.83,2.83,0,0,1,1.25,1.61,8.75,8.75,0,0,1,.34,2.65v.9h-2.55v-.93a7.3,7.3,0,0,0-.14-1.58,1.36,1.36,0,0,0-.47-.84,1.55,1.55,0,0,0-1-.26,1.58,1.58,0,0,0-1.05.31,1.7,1.7,0,0,0-.49,1.07,13.57,13.57,0,0,0-.12,2v4.8a6.19,6.19,0,0,0,.37,2.61,1.39,1.39,0,0,0,1.32.66,1.43,1.43,0,0,0,1-.33,1.61,1.61,0,0,0,.42-.94,9.25,9.25,0,0,0,.1-1.37v-1.24h2.55v1.06a8.82,8.82,0,0,1-.35,2.63,3,3,0,0,1-1.27,1.69A4.66,4.66,0,0,1,373,183.82Z" style="fill:#e0e0e0"></path><path d="M271.17,217.34v-2l5.43-8.46,1.12-1.77a9.13,9.13,0,0,0,.84-1.72,6.17,6.17,0,0,0,.33-2.1,4.72,4.72,0,0,0-.48-2.32,1.74,1.74,0,0,0-1.66-.84,2.1,2.1,0,0,0-1.55.55,2.94,2.94,0,0,0-.77,1.45,8.46,8.46,0,0,0-.21,1.93v.71H271.4V202a9.35,9.35,0,0,1,.52-3.31,4.27,4.27,0,0,1,1.66-2.15,5.39,5.39,0,0,1,3-.76,4.83,4.83,0,0,1,3.85,1.46,6,6,0,0,1,1.27,4,7.91,7.91,0,0,1-.33,2.4,9.78,9.78,0,0,1-.86,1.92c-.35.6-.74,1.21-1.16,1.85l-4.9,7.48h6.74v2.37Z" style="fill:#e0e0e0"></path><path d="M286.85,217.56a2.58,2.58,0,0,1-1.58-.52,3.5,3.5,0,0,1-1.08-1.32,3.7,3.7,0,0,1-.4-1.7,5.4,5.4,0,0,1,.48-2.4,4.64,4.64,0,0,1,1.3-1.64,9.37,9.37,0,0,1,1.93-1.18c.73-.33,1.49-.66,2.3-1v-1.08a9.22,9.22,0,0,0-.1-1.53,1.53,1.53,0,0,0-.44-.91,1.43,1.43,0,0,0-1-.3,1.49,1.49,0,0,0-.93.26,1.52,1.52,0,0,0-.52.75,4,4,0,0,0-.15,1.15v.76l-2.8-.1A5.55,5.55,0,0,1,285,203.1a4.45,4.45,0,0,1,3.43-1.2,3.78,3.78,0,0,1,3.21,1.24,5.74,5.74,0,0,1,.95,3.58v7c0,.48,0,.93,0,1.37s.06.85.11,1.23.08.73.12,1.06H290.3c-.05-.28-.11-.63-.19-1.06s-.14-.82-.18-1.18a4,4,0,0,1-1,1.68A2.74,2.74,0,0,1,286.85,217.56Zm1.11-2.43a1.43,1.43,0,0,0,.79-.24,3.8,3.8,0,0,0,.66-.54,2.91,2.91,0,0,0,.39-.48v-4.33c-.44.25-.85.49-1.24.74a7.67,7.67,0,0,0-1,.78,3.22,3.22,0,0,0-.69.92,2.72,2.72,0,0,0-.25,1.17,2.61,2.61,0,0,0,.35,1.45A1.11,1.11,0,0,0,288,215.13Z" style="fill:#e0e0e0"></path><path d="M257,171.1v-4.3h-3.69v-2.14H257v-4.29h2.11v4.29h3.82v2.14h-3.82v4.3Z" style="fill:#e0e0e0"></path><path d="M251.83,177.92v-2.14h12.63v2.14Z" style="fill:#e0e0e0"></path><path d="M325.52,177.47v-2.14h12.63v2.14Z" style="fill:#e0e0e0"></path><polygon points="279.11 183.62 270.49 165.21 272.3 164.37 279.07 178.82 289.74 155.06 376.82 155.06 376.82 157.06 291.04 157.06 279.11 183.62" style="fill:#e0e0e0"></polygon><rect x="219.72" y="189.93" width="159.71" height="2" style="fill:#e0e0e0"></rect></g><g id="freepik--speech-bubble--inject-16"><path d="M186.48,100.8H121.91a8.71,8.71,0,0,0-8.71,8.71v34a8.71,8.71,0,0,0,8.71,8.71h16.6L150,170.66l1.08-18.44h35.37a8.71,8.71,0,0,0,8.71-8.71v-34A8.71,8.71,0,0,0,186.48,100.8Z" style="fill:#263238"></path><path d="M150.44,172.25l-12.21-19.53H121.91a9.22,9.22,0,0,1-9.21-9.21v-34a9.23,9.23,0,0,1,9.21-9.21h64.57a9.22,9.22,0,0,1,9.21,9.21v34a9.22,9.22,0,0,1-9.21,9.21H151.59ZM121.91,101.3a8.23,8.23,0,0,0-8.21,8.21v34a8.22,8.22,0,0,0,8.21,8.21h16.87l10.84,17.34,1-17.34h35.84a8.22,8.22,0,0,0,8.21-8.21v-34a8.22,8.22,0,0,0-8.21-8.21Z" style="fill:#263238"></path><path d="M183.71,98H119.13a8.7,8.7,0,0,0-8.71,8.71v34a8.71,8.71,0,0,0,8.71,8.71h16.6l11.52,18.44,1.09-18.44h35.37a8.7,8.7,0,0,0,8.7-8.71v-34A8.7,8.7,0,0,0,183.71,98Z" style="fill:#fff"></path><path d="M147.66,169.48l-12.21-19.54H119.13a9.22,9.22,0,0,1-9.21-9.21v-34a9.22,9.22,0,0,1,9.21-9.21h64.58a9.22,9.22,0,0,1,9.21,9.21v34a9.22,9.22,0,0,1-9.21,9.21h-34.9ZM119.13,98.53a8.22,8.22,0,0,0-8.21,8.21v34a8.22,8.22,0,0,0,8.21,8.21H136l10.84,17.35,1-17.35h35.85a8.22,8.22,0,0,0,8.21-8.21v-34a8.22,8.22,0,0,0-8.21-8.21Z" style="fill:#263238"></path><circle cx="137.18" cy="123.06" r="3.82" style="fill:#263238"></circle><circle cx="153.85" cy="123.06" r="3.82" style="fill:#263238"></circle><path d="M174.35,123.06a3.82,3.82,0,1,1-3.82-3.82A3.83,3.83,0,0,1,174.35,123.06Z" style="fill:#263238"></path></g><g id="freepik--Clock--inject-16"><path d="M69.33,198.82a36.42,36.42,0,1,1,36.41-36.42A36.46,36.46,0,0,1,69.33,198.82Zm0-71.83a35.42,35.42,0,1,0,35.41,35.41A35.46,35.46,0,0,0,69.33,127Zm0,67.84a32.43,32.43,0,1,1,32.43-32.43A32.46,32.46,0,0,1,69.33,194.83Zm0-63.85a31.43,31.43,0,1,0,31.43,31.42A31.45,31.45,0,0,0,69.33,131Z" style="fill:#263238"></path><rect x="78.41" y="159.02" width="1" height="12.26" transform="translate(-100.91 199.33) rotate(-75.22)" style="fill:#263238"></rect><rect x="59.56" y="136.08" width="1" height="25.29" transform="translate(-74.05 60.74) rotate(-34.74)" style="fill:#263238"></rect><path d="M69.33,166.84a4.44,4.44,0,1,1,4.43-4.43A4.44,4.44,0,0,1,69.33,166.84Zm0-7.87a3.44,3.44,0,1,0,3.43,3.44A3.44,3.44,0,0,0,69.33,159Z" style="fill:#263238"></path></g></svg>
